<svg width="20" height="20" viewBox="0 0 20 20" fill="none" xmlns="http://www.w3.org/2000/svg">
<path fill-rule="evenodd" clip-rule="evenodd" d="M7.015 2.70898C7.24892 2.21593 7.7513 1.875 8.3333 1.875H11.6666C12.2486 1.875 12.751 2.21593 12.9849 2.70898C13.5545 2.71312 13.9985 2.73926 14.3948 2.89415C14.8683 3.07921 15.2801 3.39379 15.5832 3.80192C15.889 4.21366 16.0325 4.7414 16.2301 5.46778C16.2402 5.50503 16.2505 5.54281 16.261 5.58112L16.7533 7.3869C17.0762 7.55226 17.3588 7.77494 17.5945 8.07684C18.1128 8.7407 18.2046 9.5314 18.1124 10.4384C18.0229 11.3185 17.7459 12.4268 17.399 13.8141L17.377 13.902C17.1577 14.7794 16.9796 15.4917 16.7678 16.0476C16.547 16.6272 16.2667 17.1023 15.8045 17.4631C15.3423 17.824 14.8135 17.9807 14.1976 18.0544C13.607 18.125 12.8727 18.125 11.9684 18.125H8.0315C7.1272 18.125 6.39298 18.125 5.8023 18.0544C5.18645 17.9807 4.65759 17.824 4.19541 17.4631C3.73322 17.1023 3.45289 16.6272 3.23208 16.0476C3.0203 15.4917 2.84223 14.7794 2.62292 13.9021L2.60092 13.8141C2.25407 12.4268 1.97699 11.3185 1.88752 10.4384C1.79531 9.5314 1.8871 8.7407 2.40543 8.07684C2.64114 7.77494 2.9237 7.55226 3.2466 7.3869L3.73897 5.58112C3.74942 5.54281 3.7597 5.50503 3.76983 5.46778C3.96739 4.7414 4.11093 4.21366 4.41671 3.80192C4.7198 3.39379 5.13165 3.07921 5.60514 2.89415C6.00143 2.73926 6.44538 2.71312 7.015 2.70898ZM7.01617 3.96016C6.46464 3.96574 6.24333 3.9868 6.06016 4.05839C5.80521 4.15803 5.58344 4.32743 5.42024 4.54719C5.27348 4.7448 5.18736 5.0209 4.94495 5.90995L4.6503 6.99057C5.51513 6.87497 6.63163 6.87498 8.01881 6.875H11.9811C13.3683 6.87498 14.4848 6.87497 15.3496 6.99057L15.055 5.90995C14.8126 5.0209 14.7264 4.7448 14.5797 4.54719C14.4165 4.32742 14.1947 4.15803 13.9398 4.05839C13.7566 3.9868 13.5353 3.96574 12.9838 3.96016C12.7493 4.45187 12.2477 4.79167 11.6666 4.79167H8.3333C7.75227 4.79167 7.2506 4.45187 7.01617 3.96016ZM8.3333 3.125C8.21824 3.125 8.12496 3.21828 8.12496 3.33333C8.12496 3.44839 8.21824 3.54167 8.3333 3.54167H11.6666C11.7817 3.54167 11.875 3.44839 11.875 3.33333C11.875 3.21828 11.7817 3.125 11.6666 3.125H8.3333ZM4.74984 8.23874C3.99053 8.34859 3.62305 8.54849 3.39069 8.8461C3.15832 9.14371 3.05351 9.5487 3.13111 10.312C3.21036 11.0916 3.46388 12.1121 3.82614 13.5611C4.05719 14.4853 4.21811 15.1247 4.40019 15.6026C4.57628 16.0648 4.7487 16.3093 4.96467 16.4779C5.18064 16.6465 5.45958 16.7545 5.95071 16.8132C6.45854 16.874 7.11786 16.875 8.07051 16.875H11.9294C12.8821 16.875 13.5414 16.874 14.0492 16.8132C14.5403 16.7545 14.8193 16.6465 15.0353 16.4779C15.2512 16.3093 15.4236 16.0648 15.5997 15.6026C15.7818 15.1247 15.9427 14.4853 16.1738 13.5611C16.536 12.1121 16.7896 11.0916 16.8688 10.312C16.9464 9.5487 16.8416 9.14371 16.6092 8.8461C16.3769 8.54849 16.0094 8.34859 15.2501 8.23874C14.4746 8.12656 13.423 8.125 11.9294 8.125H8.07051C6.57689 8.125 5.52537 8.12656 4.74984 8.23874Z" fill="#F5F5F5"/>
</svg>
